<svg width="89" height="62" viewBox="0 0 89 62" fill="none" xmlns="http://www.w3.org/2000/svg">
<path d="M49.6 37.825C49.6 31.377 50.592 25.8383 52.576 21.209C54.56 16.4143 57.1227 12.529 60.264 9.553C63.4053 6.41167 66.96 4.17967 70.928 2.857C75.0613 1.369 79.112 0.625 83.08 0.625C84.6347 4.01436 84.3986 5.91546 83.08 9.30501C78.7813 9.30501 74.7307 10.793 70.928 13.769C67.2907 16.5797 65.1413 20.465 64.48 25.425C64.976 25.2597 65.5547 25.0943 66.216 24.929C66.712 24.7637 67.2907 24.5983 67.952 24.433C68.7787 24.2677 69.688 24.185 70.68 24.185C75.64 24.185 79.7733 26.0863 83.08 29.889C86.3867 33.5263 88.04 37.825 88.04 42.785C88.04 47.745 86.304 52.1263 82.832 55.929C79.5253 59.5663 75.0613 61.385 69.44 61.385C63.1573 61.385 58.28 59.0703 54.808 54.441C51.336 49.6463 49.6 44.1077 49.6 37.825ZM0 37.825C0 31.377 0.992 25.8383 2.976 21.209C4.96 16.4143 7.52267 12.529 10.664 9.553C13.8053 6.41167 17.36 4.17967 21.328 2.857C25.4613 1.369 29.512 0.625 33.48 0.625C35.2493 4.01484 35.0723 5.9151 33.48 9.30501C29.1813 9.30501 25.1307 10.793 21.328 13.769C17.6907 16.5797 15.5413 20.465 14.88 25.425C15.376 25.2597 15.9547 25.0943 16.616 24.929C17.112 24.7637 17.6907 24.5983 18.352 24.433C19.1787 24.2677 20.088 24.185 21.08 24.185C26.04 24.185 30.1733 26.0863 33.48 29.889C36.7867 33.5263 38.44 37.825 38.44 42.785C38.44 47.745 36.704 52.1263 33.232 55.929C29.9253 59.5663 25.4613 61.385 19.84 61.385C13.5573 61.385 8.68 59.0703 5.208 54.441C1.736 49.6463 0 44.1077 0 37.825Z" fill="#2A2D32"/>
</svg>